<svg width="40" height="40" viewBox="0 0 40 40" fill="none" xmlns="http://www.w3.org/2000/svg">
<path fill-rule="evenodd" clip-rule="evenodd" d="M14.6464 25.3536C14.8417 25.5488 15.1583 25.5488 15.3536 25.3536L20 20.7071L24.6464 25.3536C24.8417 25.5488 25.1583 25.5488 25.3536 25.3536C25.5488 25.1583 25.5488 24.8417 25.3536 24.6464L20.7071 20L25.3536 15.3536C25.5488 15.1583 25.5488 14.8417 25.3536 14.6464C25.1583 14.4512 24.8417 14.4512 24.6464 14.6464L20 19.2929L15.3536 14.6464C15.1583 14.4512 14.8417 14.4512 14.6464 14.6464C14.4512 14.8417 14.4512 15.1583 14.6464 15.3536L19.2929 20L14.6464 24.6464C14.4512 24.8417 14.4512 25.1583 14.6464 25.3536Z" fill="#68737D"/>
<mask id="mask0_314_4232" style="mask-type:alpha" maskUnits="userSpaceOnUse" x="14" y="14" width="12" height="12">
<path fill-rule="evenodd" clip-rule="evenodd" d="M14.6464 25.3536C14.8417 25.5488 15.1583 25.5488 15.3536 25.3536L20 20.7071L24.6464 25.3536C24.8417 25.5488 25.1583 25.5488 25.3536 25.3536C25.5488 25.1583 25.5488 24.8417 25.3536 24.6464L20.7071 20L25.3536 15.3536C25.5488 15.1583 25.5488 14.8417 25.3536 14.6464C25.1583 14.4512 24.8417 14.4512 24.6464 14.6464L20 19.2929L15.3536 14.6464C15.1583 14.4512 14.8417 14.4512 14.6464 14.6464C14.4512 14.8417 14.4512 15.1583 14.6464 15.3536L19.2929 20L14.6464 24.6464C14.4512 24.8417 14.4512 25.1583 14.6464 25.3536Z" fill="white"/>
</mask>
<g mask="url(#mask0_314_4232)">
</g>
</svg>
