<svg width="31" height="20" viewBox="0 0 31 20" fill="none" xmlns="http://www.w3.org/2000/svg">
<g clip-path="url(#clip0_315_3368)">
<path fill-rule="evenodd" clip-rule="evenodd" d="M4.36962 6.44736C4.36962 7.43102 5.18476 8.22842 6.1903 8.22842C7.19584 8.22842 8.01094 7.43102 8.01094 6.44736C8.01094 5.46372 7.19584 4.66632 6.1903 4.66632C5.18476 4.66632 4.36962 5.46372 4.36962 6.44736ZM6.1903 0.391815C2.77149 0.391815 0 3.10298 0 6.44736C0 9.79173 2.77149 12.5029 6.1903 12.5029C9.60915 12.5029 12.3806 9.79173 12.3806 6.44736C12.3806 3.10298 9.60915 0.391815 6.1903 0.391815Z" fill="#171A1C"/>
<path fill-rule="evenodd" clip-rule="evenodd" d="M26.403 4.31012C22.9842 4.31012 20.2126 7.02129 20.2126 10.3657V12.5029H15.8431V10.3657C15.8431 4.66054 20.5709 0.035614 26.403 0.035614H30.9547V4.31012H26.403Z" fill="#F4AC1A"/>
<path fill-rule="evenodd" clip-rule="evenodd" d="M20.3948 15.7088C23.8136 15.7088 26.585 12.9976 26.585 9.65328V7.51599H30.9547V9.65328C30.9547 15.3584 26.2269 19.9833 20.3948 19.9833H15.8431V15.7088H20.3948Z" fill="#6D15E8"/>
<path d="M0 15.7088H12.7448V19.9833H0V15.7088Z" fill="#1CB559"/>
</g>
<defs>
<clipPath id="clip0_315_3368">
<rect width="31" height="20" fill="white"/>
</clipPath>
</defs>
</svg>
