<svg width="16" height="16" viewBox="0 0 16 16" fill="none" xmlns="http://www.w3.org/2000/svg">
<g clip-path="url(#clip0_314_4286)">
<path d="M8.00004 9.33334C9.10671 9.33334 10 8.44001 10 7.33334V3.33334C10 2.22668 9.10671 1.33334 8.00004 1.33334C6.89337 1.33334 6.00004 2.22668 6.00004 3.33334V7.33334C6.00004 8.44001 6.89337 9.33334 8.00004 9.33334ZM7.33337 3.33334C7.33337 2.96668 7.63337 2.66668 8.00004 2.66668C8.36671 2.66668 8.66671 2.96668 8.66671 3.33334V7.33334C8.66671 7.70001 8.36671 8.00001 8.00004 8.00001C7.63337 8.00001 7.33337 7.70001 7.33337 7.33334V3.33334ZM11.3334 7.33334C11.3334 9.17334 9.84004 10.6667 8.00004 10.6667C6.16004 10.6667 4.66671 9.17334 4.66671 7.33334H3.33337C3.33337 9.68668 5.07337 11.62 7.33337 11.9467V14H8.66671V11.9467C10.9267 11.62 12.6667 9.68668 12.6667 7.33334H11.3334Z" fill="#6E7A87"/>
</g>
<defs>
<clipPath id="clip0_314_4286">
<rect width="16" height="16" fill="white"/>
</clipPath>
</defs>
</svg>
