<svg width="14" height="14" viewBox="0 0 14 14" fill="none" xmlns="http://www.w3.org/2000/svg">
<g clip-path="url(#clip0_411_3795)">
<path d="M6.3 2.85835C6.3 2.47335 6.615 2.15835 7 2.15835C7.385 2.15835 7.7 2.47335 7.7 2.85835L7.69417 5.13919L8.75 6.18335V2.91669C8.75 1.94835 7.96833 1.16669 7 1.16669C6.10167 1.16669 5.3725 1.84335 5.27333 2.71252L6.3 3.73919V2.85835V2.85835ZM11.0833 6.41669H10.0917C10.0917 6.75502 10.0333 7.07585 9.93417 7.37335L10.675 8.11419C10.9317 7.60085 11.0833 7.02335 11.0833 6.41669ZM2.5725 1.66835L1.75 2.49085L5.25 5.99085V6.41669C5.25 7.38502 6.03167 8.16669 7 8.16669C7.13417 8.16669 7.25667 8.14919 7.37917 8.12002L8.3475 9.08835C7.93333 9.28085 7.4725 9.39169 7 9.39169C5.39 9.39169 3.90833 8.16669 3.90833 6.41669H2.91667C2.91667 8.40585 4.50333 10.0509 6.41667 10.3367V12.25H7.58333V10.3367C8.11417 10.2609 8.61583 10.0742 9.07083 9.81169L11.5208 12.2617L12.3433 11.4392L2.5725 1.66835Z" fill="#6E7A87"/>
</g>
<defs>
<clipPath id="clip0_411_3795">
<rect width="14" height="14" fill="white"/>
</clipPath>
</defs>
</svg>
